<svg xmlns="http://www.w3.org/2000/svg" viewBox="0 0 140 32" fill="none">
  <path d="M14.5 4C8.7 4 4 8.7 4 14.5S8.7 25 14.5 25 25 20.3 25 14.5 20.3 4 14.5 4zm0 17.5c-4.7 0-8.5-3.8-8.5-8.5S9.8 4.5 14.5 4.5 23 8.3 23 13s-3.8 8.5-8.5 8.5z" fill="#5405BD"/>
  <path d="M14.5 8a6.5 6.5 0 100 13 6.5 6.5 0 000-13zm0 11a4.5 4.5 0 110-9 4.5 4.5 0 010 9z" fill="#5405BD"/>
  <circle cx="14.5" cy="14.5" r="2.5" fill="#5405BD"/>
  <text x="30" y="21" font-family="system-ui, -apple-system, sans-serif" font-weight="700" font-size="16" fill="currentColor">talkdesk</text>
</svg>
